<svg width="62" height="62" viewBox="0 0 62 62" fill="none" xmlns="http://www.w3.org/2000/svg">
<path d="M25.6285 4.21179C26.3173 4.83146 27.0056 5.4511 27.6945 6.13999C28.3142 6.82883 29.0717 7.44854 29.6227 8.20605C30.862 9.58322 32.0332 11.167 33.1347 12.7512C34.1675 14.335 35.1315 16.0566 35.889 17.8473C36.6466 19.6377 37.2662 21.4971 37.5419 23.4252C37.6106 21.4284 37.404 19.4311 36.9909 17.5029C36.5778 15.5061 35.9581 13.5774 35.2006 11.7184C34.443 9.85892 33.5477 7.99995 32.5148 6.2091C32.0326 5.31372 31.4129 4.48749 30.862 3.59213C30.311 2.76591 29.6227 1.93926 29.0716 1.11301C29.0029 0.975148 28.8651 0.906456 28.7964 0.768592C27.8323 -0.126793 26.3859 -0.0576337 25.491 0.906456C24.5956 1.87053 24.6648 3.31696 25.6289 4.21183L25.6285 4.21179Z" fill="black"/>
<path d="M36.4402 57.7883C35.7513 57.1686 35.063 56.5489 34.3741 55.8601C33.7544 55.1712 33.0656 54.5515 32.4459 53.794C31.2066 52.4168 30.0354 50.8331 29.0027 49.2488C27.9699 47.6651 27.0745 45.9434 26.317 44.1527C25.5594 42.3624 24.9398 40.5029 24.6641 38.5748C24.5262 40.5717 24.802 42.569 25.2151 44.4972C25.6282 46.494 26.2478 48.4227 26.9367 50.2817C27.6942 52.1411 28.5896 54.0001 29.6224 55.7909C30.1047 56.6863 30.7243 57.5126 31.2753 58.4079C31.8262 59.2341 32.4459 60.0608 33.0656 60.887C33.1343 61.0249 33.2722 61.0936 33.3409 61.2315C34.305 62.1268 35.7514 62.0577 36.6462 61.0936C37.5416 60.1295 37.4725 58.6831 36.5084 57.7882L36.4402 57.7883Z" fill="black"/>
<path d="M18.742 6.41516L18.8798 6.48385C19.7061 6.89696 20.5327 7.31008 21.359 7.7924C22.1852 8.27472 23.0118 8.75647 23.7695 9.2388C25.3532 10.2716 26.8682 11.4427 28.3146 12.682C29.6918 13.9906 31.069 15.3677 32.2402 16.8827C33.4108 18.3978 34.5127 20.0508 35.3389 21.841C34.9258 19.9128 34.1683 18.0533 33.2729 16.2631C32.3775 14.4729 31.2761 12.7511 30.0363 11.0983C28.7969 9.5145 27.4884 7.93025 25.9734 6.48434C25.2845 5.72681 24.4584 5.10718 23.7009 4.41828C22.9433 3.72944 22.1171 3.10974 21.2903 2.49008C21.1525 2.42139 21.0151 2.28352 20.8772 2.21483C19.7066 1.59516 18.3294 2.07697 17.7092 3.17891C17.0891 4.28037 17.6401 5.86462 18.742 6.41505L18.742 6.41516Z" fill="black"/>
<path d="M43.3266 55.5847L43.1888 55.516C42.3625 55.1029 41.5359 54.6897 40.7096 54.2074C39.8834 53.7251 39.0568 53.2433 38.2991 52.6924C36.7154 51.6596 35.2004 50.4885 33.754 49.2492C32.3768 47.9406 30.9996 46.5635 29.8284 45.0485C28.6578 43.5334 27.5559 41.8804 26.7983 40.0902C27.2114 42.0184 27.9689 43.8779 28.8643 45.6681C29.7598 47.4583 30.8612 49.1801 32.0323 50.8329C33.2717 52.4167 34.5802 54.001 36.0952 55.4469C36.7841 56.2044 37.6102 56.824 38.3678 57.5815C39.1253 58.2704 39.9515 58.8901 40.7783 59.5097C40.9161 59.5784 41.0535 59.7163 41.1227 59.785C42.2933 60.4047 43.6705 59.9915 44.2907 58.8209C44.8417 57.5816 44.4286 56.2044 43.3266 55.5848L43.3266 55.5847Z" fill="black"/>
<path d="M12.8197 10.4784H12.9575C13.8529 10.6849 14.817 10.8915 15.7119 11.098C16.6072 11.3733 17.5713 11.5803 18.3976 11.9243C20.1879 12.4752 21.9786 13.2328 23.7003 14.1282C25.4219 15.0235 27.0747 15.9876 28.5899 17.1583C30.1049 18.329 31.62 19.6375 32.8593 21.1525C31.964 19.3621 30.7247 17.778 29.4161 16.2629C28.1076 14.7478 26.5926 13.3705 25.0088 12.1307C23.425 10.8914 21.7034 9.72024 19.9127 8.75626C19.0173 8.20528 18.1224 7.79218 17.1584 7.30986C16.263 6.89675 15.2989 6.48363 14.3348 6.07054C14.1969 6.00185 14.0596 5.93268 13.9217 5.93268C12.6824 5.65743 11.3738 6.41497 11.0981 7.72303C10.7537 8.89415 11.5799 10.1339 12.8197 10.4783L12.8197 10.4784Z" fill="black"/>
<path d="M49.249 51.5216H49.1111C48.2157 51.3151 47.2516 51.1085 46.3568 50.902C45.4614 50.6267 44.4973 50.4197 43.671 50.0757C41.8807 49.5248 40.1591 48.7672 38.4375 47.8718C36.7159 46.9765 35.063 46.0124 33.5479 44.8417C32.0328 43.671 30.5177 42.3626 29.2784 40.8475C30.1738 42.6379 31.4131 44.222 32.7216 45.7372C34.0302 47.2522 35.5452 48.6295 37.1289 49.8693C38.7127 51.1086 40.4343 52.2798 42.225 53.3125C43.1204 53.8635 44.0154 54.2766 44.9794 54.7589C45.8747 55.172 46.8388 55.5851 47.8029 55.9982C47.9408 56.0669 48.0782 56.1361 48.216 56.1361C49.4553 56.4113 50.7639 55.6538 51.0396 54.4145C51.3148 53.1059 50.4886 51.8661 49.2489 51.5218L49.249 51.5216Z" fill="black"/>
<path d="M8.13687 15.8499H8.27473C9.23881 15.8499 10.1342 15.7812 11.0983 15.712C12.0624 15.712 12.9578 15.712 13.9219 15.7807C15.7813 15.8494 17.7095 16.1251 19.569 16.5382C21.4285 16.9513 23.2874 17.5023 25.0783 18.1911C26.8686 18.9486 28.6593 19.7749 30.2431 20.9454C28.9346 19.499 27.3508 18.2597 25.6292 17.1578C23.9763 16.0558 22.1172 15.0917 20.2578 14.3342C18.3983 13.5767 16.4701 12.8878 14.4733 12.406C13.5092 12.1307 12.4764 11.9237 11.4431 11.7171C10.4103 11.5106 9.44629 11.3727 8.41295 11.2349H7.93067C6.62212 11.3036 5.65814 12.3368 5.65814 13.6454C5.65814 14.9544 6.82877 15.9184 8.13677 15.8498L8.13687 15.8499Z" fill="black"/>
<path d="M53.9317 46.1502H53.7939C52.8298 46.1502 51.9344 46.2189 50.9703 46.2189C50.0062 46.2189 49.1108 46.2189 48.1467 46.1502C46.2873 46.0815 44.3591 45.8058 42.4996 45.3927C40.6401 44.9796 38.7812 44.4286 36.9903 43.7398C35.2 42.9823 33.4093 42.156 31.8255 40.9855C33.134 42.4319 34.7178 43.6712 36.4394 44.7731C38.0923 45.8751 39.8826 46.8392 41.8108 47.6654C43.6703 48.423 45.5985 49.1118 47.5953 49.6623C48.5594 49.9375 49.5922 50.1446 50.6255 50.3511C51.6583 50.5577 52.6223 50.6955 53.6557 50.8334H54.1379C55.4465 50.7647 56.4792 49.7315 56.4105 48.4229C56.3418 47.1143 55.2403 46.0816 53.9318 46.1504L53.9317 46.1502Z" fill="black"/>
<path d="M4.96914 22.3231L5.107 22.2544C6.00239 21.9792 6.89736 21.7035 7.79272 21.4282C8.6881 21.2217 9.58307 20.9459 10.547 20.7394C12.4065 20.3263 14.2655 20.1197 16.1942 19.9818C18.1224 19.9131 20.0505 19.9131 21.9787 20.1884C23.9069 20.3949 25.835 20.8081 27.6258 21.4969C25.9729 20.395 24.1138 19.6375 22.1858 19.0178C20.2576 18.3981 18.3295 17.985 16.2634 17.6407C14.2666 17.3654 12.2005 17.2275 10.1345 17.2275C9.10171 17.2275 8.06842 17.2962 7.0357 17.3654C6.00293 17.4341 4.96964 17.572 3.93692 17.7098C3.79906 17.7098 3.66168 17.7785 3.52381 17.7785C2.2845 18.1916 1.59561 19.5001 1.94005 20.7394C2.42138 21.9788 3.72942 22.6672 4.96923 22.3232L4.96914 22.3231Z" fill="black"/>
<path d="M57.0995 39.677L56.9616 39.7457C56.0662 40.0209 55.1712 40.2966 54.2759 40.5719C53.3805 40.7784 52.4164 41.0542 51.5216 41.1915C49.6621 41.6047 47.8031 41.8112 45.8744 41.9491C43.9467 42.0187 42.0186 42.0187 40.0904 41.743C38.1622 41.4678 36.2341 41.1233 34.4433 40.3658C36.0962 41.4678 37.9553 42.2253 39.8833 42.845C41.8115 43.4646 43.7396 43.9469 45.8057 44.2221C47.8025 44.4974 49.8686 44.6352 51.9346 44.6352C52.9674 44.6352 54.0007 44.5665 55.0334 44.4974C56.0662 44.4287 57.0995 44.2908 58.1322 44.153C58.27 44.153 58.4074 44.0843 58.5453 44.0843C59.7846 43.7398 60.4735 42.4314 60.129 41.192C59.6477 40.0213 58.3392 39.333 57.0994 39.6769L57.0995 39.677Z" fill="black"/>
<path d="M3.6607 29.3473L3.79856 29.2786C4.5561 28.7963 5.38232 28.2458 6.20907 27.7636C7.03529 27.3505 7.86193 26.7995 8.68818 26.3864C10.3411 25.491 12.1314 24.8027 13.9218 24.1825C15.7121 23.6315 17.6402 23.1497 19.4997 22.874C21.4279 22.5987 23.3559 22.4608 25.3534 22.6674C23.4939 22.0477 21.4971 21.772 19.4997 21.7033C17.5028 21.5655 15.4368 21.7033 13.4395 21.9099C11.4426 22.1851 9.37658 22.5296 7.44838 23.0805C6.41561 23.3558 5.52018 23.7002 4.48745 23.9759C3.4542 24.389 2.49014 24.8026 1.52604 25.1465C1.38817 25.2152 1.25079 25.2844 1.11292 25.3531C0.0109816 26.0419 -0.333476 27.4878 0.35539 28.5897C1.11292 29.6917 2.55881 30.0361 3.66076 29.3473L3.6607 29.3473Z" fill="black"/>
<path d="M61.6446 33.4103C60.9557 32.3083 59.5099 31.9639 58.408 32.6528L58.2701 32.7214C57.4439 33.2037 56.6863 33.7542 55.8596 34.2365C55.0334 34.6496 54.2067 35.2005 53.3805 35.6136C51.6589 36.509 49.9372 37.1974 48.1469 37.8175C46.3565 38.3685 44.4285 38.8503 42.569 39.1261C40.6408 39.4013 38.7127 39.5392 36.7153 39.2639C38.5747 39.8836 40.5716 40.1593 42.569 40.2967C44.5658 40.4346 46.6319 40.2967 48.6292 40.0902C50.626 39.8149 52.6921 39.4705 54.6203 38.9195C55.653 38.713 56.5485 38.2999 57.5812 38.0241C58.5453 37.6797 59.5094 37.2666 60.4735 36.9222C60.6114 36.8535 60.7488 36.7843 60.8866 36.7156C61.989 35.9581 62.3335 34.5117 61.6446 33.4103L61.6446 33.4103Z" fill="black"/>
<path d="M4.14276 36.5093L4.21145 36.4406C4.83112 35.7517 5.45077 35.0634 6.13966 34.3745C6.8285 33.7549 7.4482 32.9974 8.20571 32.4463C9.58288 31.207 11.1666 30.0358 12.7509 28.9344C14.3346 27.9016 16.0563 27.0062 17.847 26.18C19.6373 25.4225 21.4968 24.8029 23.4249 24.5272C21.4281 24.4585 19.4307 24.665 17.5025 25.0781C15.5057 25.4912 13.577 26.1109 11.718 26.8685C9.85858 27.626 7.99961 28.5214 6.20877 29.5542C5.31338 30.0365 4.48715 30.6561 3.59179 31.2071C2.76557 31.758 1.93892 32.4464 1.11267 32.9974C0.906117 33.0661 0.836946 33.204 0.699561 33.2727C-0.195824 34.2367 -0.126664 35.6832 0.837425 36.578C1.80102 37.4734 3.24744 37.4043 4.1428 36.5093L4.14276 36.5093Z" fill="black"/>
<path d="M57.9259 25.4909L57.8567 25.6287C57.237 26.3176 56.6174 27.0059 55.9285 27.6948C55.2396 28.3145 54.6199 29.0033 53.8624 29.623C52.4853 30.8623 50.9015 32.0335 49.3172 33.0662C47.7335 34.099 46.0119 34.9944 44.2211 35.7519C42.4308 36.5095 40.5713 37.1291 38.6432 37.4048C40.6401 37.5427 42.6374 37.2669 44.5656 36.8538C46.5624 36.4407 48.4911 35.821 50.3501 35.1322C52.2095 34.3747 54.0685 33.4793 55.8594 32.4465C56.7547 31.9642 57.581 31.3445 58.4763 30.7936C59.3026 30.2426 60.1292 29.623 60.9555 29.0033C61.0933 28.9346 61.162 28.7967 61.2999 28.728C62.1953 27.7639 62.1261 26.3175 61.162 25.4226C60.3358 24.5268 58.8207 24.5268 57.9259 25.4909H57.9259Z" fill="black"/>
<path d="M6.48413 43.2578L6.55282 43.12C6.96593 42.2938 7.37904 41.4671 7.86137 40.6409C8.34369 39.8146 8.82544 38.988 9.30777 38.2304C10.3405 36.6466 11.5117 35.1316 12.751 33.6852C14.0595 32.308 15.4367 30.9309 16.9517 29.7597C18.4667 28.589 20.1197 27.4871 21.91 26.6609C19.9818 27.074 18.1223 27.8315 16.3321 28.7269C14.5418 29.6224 12.8201 30.7238 11.1672 31.9636C9.58347 33.2029 7.99922 34.5114 6.55331 36.0265C5.79578 36.7153 5.17615 37.5415 4.48726 38.299C3.79841 39.0565 3.17871 39.8827 2.55905 40.7095C2.49036 40.8473 2.35249 40.9847 2.2838 41.1226C1.66413 42.2932 2.14594 43.6705 3.24788 44.2906C4.4867 44.8416 5.86436 44.4285 6.48402 43.2578L6.48413 43.2578Z" fill="black"/>
<path d="M55.5845 18.7422L55.5158 18.88C55.1027 19.7063 54.6896 20.5329 54.2072 21.3592C53.7249 22.1854 53.2432 23.012 52.6922 23.7697C51.6594 25.3534 50.4883 26.8684 49.249 28.3148C47.9405 29.692 46.5633 31.0692 45.0483 32.2403C43.5332 33.411 41.8803 34.5129 40.09 35.2705C42.0182 34.8574 43.8777 34.0999 45.6679 33.2044C47.4582 32.309 49.1799 31.2076 50.8328 30.0364C52.4165 28.7971 54.0008 27.4886 55.4467 25.9736C56.2042 25.2847 56.8238 24.4585 57.5813 23.701C58.2702 22.9435 58.8899 22.1173 59.5096 21.2905C59.5782 21.1527 59.7161 21.0153 59.7848 20.9461C60.4045 19.7755 59.9914 18.3983 58.8207 17.7781C57.6501 17.1584 56.2042 17.5715 55.5846 18.7422L55.5845 18.7422Z" fill="black"/>
<path d="M14.1281 38.2997C15.0235 36.5781 15.9876 34.9252 17.1583 33.4101C18.3289 31.8951 19.6374 30.3799 21.1524 29.1406C19.3621 30.036 17.7779 31.2753 16.2628 32.5838C14.7478 33.8924 13.3705 35.4074 12.1307 36.9912C10.8914 38.5749 9.72018 40.2965 8.7562 42.0873C8.20522 42.9826 7.79212 43.8776 7.3098 44.8416C6.89668 45.737 6.48357 46.7011 6.07048 47.6652C6.00179 47.803 5.93262 47.9404 5.93262 48.0783C5.65737 49.3176 6.4149 50.6261 7.72297 50.9018C8.96229 51.1771 10.2708 50.4196 10.5465 49.1115V48.9736C10.7531 48.0782 10.9597 47.1142 11.1662 46.2193C11.4415 45.3239 11.6485 44.3598 11.9924 43.5336C12.5444 41.812 13.3015 40.0212 14.1281 38.2996L14.1281 38.2997Z" fill="black"/>
<path d="M47.9405 23.6315C47.0451 25.3531 46.081 27.006 44.9103 28.5212C43.7397 30.0362 42.4312 31.5513 40.9162 32.7906C42.7066 31.8952 44.2907 30.656 45.8058 29.3474C47.3208 28.0389 48.6981 26.5238 49.9379 24.9401C51.1772 23.3563 52.3484 21.6347 53.3812 19.844C53.9321 18.9486 54.3452 18.0536 54.8276 17.0897C55.2407 16.1943 55.6538 15.2302 56.0669 14.2661C56.1356 14.1282 56.2047 13.9908 56.2047 13.853C56.48 12.6137 55.7224 11.3051 54.4831 11.0294C53.2438 10.7542 51.9353 11.5117 51.6596 12.751V12.8889C51.453 13.7843 51.2464 14.7484 51.0399 15.6432C50.7646 16.5386 50.5576 17.5027 50.2137 18.3289C49.5243 20.1884 48.7668 21.91 47.9406 23.6316L47.9405 23.6315Z" fill="black"/>
<path d="M16.6072 42.4314C17.0203 40.572 17.5713 38.713 18.2601 36.9222C19.0176 35.1318 19.8438 33.3411 21.0144 31.7573C19.568 33.0659 18.3287 34.6496 17.2267 36.3712C16.1248 38.0241 15.1607 39.8832 14.4032 41.7427C13.6456 43.6021 12.9568 45.5303 12.475 47.5272C12.1997 48.4912 11.9927 49.524 11.7861 50.5573C11.5796 51.5901 11.4417 52.5541 11.3038 53.5875V54.0698C11.3725 55.3783 12.4058 56.3423 13.7143 56.3423C15.0229 56.3423 15.9869 55.2403 15.9869 53.9318V53.7939C15.9869 52.8298 15.9182 51.9345 15.849 50.9704C15.849 50.0063 15.849 49.1109 15.9177 48.1468C15.9873 46.2191 16.2626 44.3596 16.607 42.4314L16.6072 42.4314Z" fill="black"/>
<path d="M45.4615 19.4997C45.0484 21.3591 44.4974 23.2181 43.8086 25.0089C43.0511 26.7993 42.2248 28.59 41.0543 30.1738C42.5007 28.8652 43.74 27.2815 44.8419 25.5599C45.9439 23.907 46.908 22.1166 47.7342 20.1884C48.4918 18.329 49.1806 16.4008 49.7311 14.4039C50.0063 13.4399 50.2133 12.4071 50.4199 11.3738C50.6265 10.341 50.7643 9.37696 50.9022 8.34363V7.86134C50.8335 6.55279 49.8002 5.52007 48.4917 5.58881C47.1831 5.65751 46.1504 6.69076 46.2192 7.99932V8.13718C46.2192 9.10126 46.2878 9.99664 46.2878 10.9607C46.2878 11.9248 46.2878 12.8202 46.2192 13.7843C46.0813 15.7806 45.8056 17.6401 45.4616 19.4997L45.4615 19.4997Z" fill="black"/>
<path d="M22.3229 56.8931C22.0477 55.9977 21.7719 55.1027 21.4967 54.2074C21.2901 53.312 21.0144 52.417 20.8078 51.453C20.3947 49.5936 20.1882 47.7346 20.0503 45.8059C19.9816 43.8777 19.9816 41.9496 20.2569 40.0214C20.4634 38.0932 20.8765 36.1651 21.5654 34.3743C20.4635 36.0271 19.706 37.8862 19.0863 39.8143C18.4666 41.7425 18.0535 43.6706 17.7091 45.7367C17.4339 47.7335 17.296 49.7995 17.296 51.8656C17.296 52.8984 17.3647 53.9316 17.4339 54.9644C17.5026 55.9971 17.6404 57.0304 17.7783 58.0631C17.7783 58.201 17.847 58.3384 17.847 58.4763C18.2601 59.7156 19.5686 60.4045 20.8079 60.06C22.0472 59.6469 22.7361 58.3384 22.3917 57.0991L22.3229 56.8931Z" fill="black"/>
<path d="M39.7457 5.10713C40.0209 6.00251 40.2966 6.89748 40.5719 7.79284C40.7784 8.68822 41.0542 9.6523 41.1916 10.5472C41.6047 12.4066 41.8112 14.2656 41.9491 16.1943C42.0178 18.1225 42.0178 20.0506 41.7425 21.9788C41.4673 23.907 41.1229 25.8351 40.3654 27.6259C41.4673 25.9731 42.2248 24.114 42.8445 22.1859C43.4642 20.2577 43.9464 18.3296 44.2217 16.2635C44.4969 14.2667 44.6348 12.2007 44.6348 10.1346C44.6348 9.10183 44.5661 8.06854 44.4969 7.03582C44.4282 6.00305 44.2903 4.96977 44.1525 3.93705C44.1525 3.79918 44.0838 3.6618 44.0838 3.52393C43.7394 2.28462 42.4309 1.59573 41.1915 1.94017C39.952 2.28462 39.2633 3.59304 39.6077 4.83248L39.7457 5.10713Z" fill="black"/>
<path d="M29.2783 58.2704C28.796 57.5129 28.2455 56.6866 27.7633 55.8599C27.3502 55.0337 26.7992 54.207 26.3861 53.3808C25.4907 51.7279 24.8024 49.9375 24.1822 48.1472C23.6312 46.3568 23.1494 44.4288 22.8737 42.5693C22.5984 40.6411 22.4605 38.713 22.6671 36.7156C22.0474 38.575 21.7717 40.5719 21.703 42.5693C21.5652 44.5661 21.703 46.6322 21.9096 48.6295C22.1848 50.6263 22.5292 52.6924 23.0802 54.6206C23.3555 55.6533 23.6999 56.5488 23.9756 57.5815C24.32 58.5456 24.7331 59.5097 25.0775 60.4738C25.1462 60.6117 25.2154 60.7491 25.2841 60.8869C25.9729 61.9889 27.4188 62.3333 28.5207 61.6445C29.6227 60.9556 29.9671 59.5098 29.2783 58.4078L29.2783 58.2704Z" fill="black"/>
<path d="M32.7904 3.72945C33.2727 4.55568 33.8232 5.31321 34.3054 6.13995C34.7185 6.96618 35.2695 7.79282 35.6826 8.61907C36.578 10.3407 37.2664 12.0623 37.8865 13.8526C38.4375 15.643 38.9193 17.5711 39.1951 19.4305C39.4703 21.3587 39.6082 23.2868 39.3329 25.2843C39.9526 23.4248 40.2283 21.428 40.3657 19.4305C40.5035 17.4337 40.3657 15.3677 40.1591 13.3703C39.8839 11.3735 39.5395 9.30747 38.9885 7.37927C38.7819 6.3465 38.3688 5.45106 38.0931 4.41834C37.7487 3.45426 37.3356 2.49014 36.9912 1.52604C36.9225 1.38817 36.8533 1.25079 36.7846 1.11292C36.0958 0.0109816 34.6499 -0.333476 33.548 0.35539C32.446 1.04423 32.1016 2.49006 32.7904 3.59202L32.7904 3.72945Z" fill="black"/>
</svg>
